<svg width="125" height="50" viewBox="0 0 125 50" fill="none" xmlns="http://www.w3.org/2000/svg">
<rect width="125" height="50" rx="25" fill="#EBA801"/>
<path d="M58.38 23.28C57.8067 23.28 57.2533 23.2133 56.72 23.08C56.1867 22.9467 55.6867 22.7333 55.22 22.44C55.14 22.3733 55.06 22.3 54.98 22.22C54.9 22.14 54.84 22.0533 54.8 21.96C54.6667 21.6 54.5733 21.16 54.52 20.64C54.48 20.12 54.4667 19.5933 54.48 19.06C54.48 18.9667 54.52 18.9 54.6 18.86C54.68 18.82 54.7733 18.8 54.88 18.8C55.0133 18.8 55.1 18.82 55.14 18.86C55.1933 18.8867 55.2467 18.9467 55.3 19.04C55.5933 20.04 56.0267 20.8467 56.6 21.46C57.1867 22.0733 57.8667 22.38 58.64 22.38C59.0667 22.38 59.4133 22.2867 59.68 22.1C59.96 21.9 60.1733 21.6533 60.32 21.36C60.4667 21.0533 60.54 20.7467 60.54 20.44C60.54 20.0133 60.4533 19.6533 60.28 19.36C60.12 19.0667 59.8733 18.8 59.54 18.56C59.2067 18.32 58.78 18.06 58.26 17.78C57.7 17.46 57.16 17.1267 56.64 16.78C56.12 16.42 55.6933 15.9867 55.36 15.48C55.0267 14.9733 54.86 14.34 54.86 13.58C54.86 12.7933 55.06 12.1133 55.46 11.54C55.8733 10.9667 56.4333 10.52 57.14 10.2C57.8467 9.88 58.64 9.72 59.52 9.72C60.0267 9.72 60.5067 9.77333 60.96 9.88C61.4267 9.98667 61.8 10.0933 62.08 10.2C62.24 10.2667 62.3533 10.34 62.42 10.42C62.5 10.5 62.5667 10.64 62.62 10.84C62.6867 11.12 62.74 11.46 62.78 11.86C62.8333 12.26 62.86 12.7 62.86 13.18C62.86 13.3533 62.74 13.44 62.5 13.44C62.38 13.44 62.2667 13.4133 62.16 13.36C62.0667 13.2933 62.0067 13.2133 61.98 13.12C61.7533 12.32 61.42 11.7133 60.98 11.3C60.54 10.8867 60 10.68 59.36 10.68C58.96 10.68 58.62 10.7467 58.34 10.88C58.06 11.0133 57.8467 11.2133 57.7 11.48C57.5667 11.7467 57.5 12.08 57.5 12.48C57.5 12.8 57.6067 13.1 57.82 13.38C58.0467 13.6467 58.3667 13.92 58.78 14.2C59.1933 14.48 59.6667 14.78 60.2 15.1C60.92 15.5267 61.4933 15.9467 61.92 16.36C62.3467 16.7733 62.6533 17.2133 62.84 17.68C63.04 18.1333 63.14 18.66 63.14 19.26C63.14 20.1667 62.94 20.92 62.54 21.52C62.1533 22.12 61.6 22.5667 60.88 22.86C60.1733 23.14 59.34 23.28 58.38 23.28ZM64.6028 28.24C64.5095 28.24 64.4161 28.2133 64.3228 28.16C64.2428 28.12 64.2028 28.0533 64.2028 27.96C64.2028 27.8533 64.2428 27.7667 64.3228 27.7C64.4161 27.6467 64.5295 27.6 64.6628 27.56C64.9428 27.4667 65.1361 27.3667 65.2428 27.26C65.3628 27.1667 65.4228 27.0133 65.4228 26.8V17.22C65.4228 17.0467 65.3895 16.88 65.3228 16.72C65.2561 16.56 65.1628 16.42 65.0428 16.3C64.9228 16.1667 64.7695 16.0867 64.5828 16.06C64.5028 16.0333 64.4428 16 64.4028 15.96C64.3628 15.9067 64.3428 15.82 64.3428 15.7C64.3428 15.5933 64.3628 15.5133 64.4028 15.46C64.4428 15.4067 64.4961 15.3733 64.5628 15.36C65.0295 15.2533 65.5295 15.1133 66.0628 14.94C66.5961 14.7667 67.0561 14.5867 67.4428 14.4C67.4961 14.3733 67.5495 14.3467 67.6028 14.32C67.6695 14.28 67.7295 14.26 67.7828 14.26C67.8628 14.26 67.9095 14.2867 67.9228 14.34C67.9495 14.38 67.9628 14.4333 67.9628 14.5C67.9628 14.6067 67.9428 14.7867 67.9028 15.04C67.8761 15.28 67.8628 15.4867 67.8628 15.66C67.8628 15.7933 67.8761 15.8733 67.9028 15.9C68.0361 15.7667 68.2695 15.5867 68.6028 15.36C68.9495 15.1333 69.3428 14.9333 69.7828 14.76C70.2228 14.5867 70.6495 14.5 71.0628 14.5C71.7828 14.5 72.3895 14.6933 72.8828 15.08C73.3895 15.4533 73.7761 15.94 74.0428 16.54C74.3095 17.1267 74.4428 17.7467 74.4428 18.4C74.4428 19.0267 74.3228 19.6333 74.0828 20.22C73.8561 20.8067 73.5295 21.34 73.1028 21.82C72.6761 22.2867 72.1828 22.66 71.6228 22.94C71.0628 23.22 70.4628 23.36 69.8228 23.36C69.6761 23.36 69.4961 23.34 69.2828 23.3C69.0828 23.26 68.8761 23.2067 68.6628 23.14C68.4628 23.0733 68.2761 23.0067 68.1028 22.94C68.0895 22.94 68.0761 22.96 68.0628 23C68.0495 23.04 68.0361 23.0867 68.0228 23.14C68.0228 23.1933 68.0228 23.2467 68.0228 23.3V26.62C68.0228 26.7933 68.0628 26.94 68.1428 27.06C68.2361 27.18 68.3628 27.2733 68.5228 27.34C68.6828 27.42 68.8761 27.4933 69.1028 27.56C69.2361 27.6 69.3428 27.6467 69.4228 27.7C69.5028 27.7667 69.5428 27.8533 69.5428 27.96C69.5428 28.04 69.5028 28.1067 69.4228 28.16C69.3561 28.2133 69.2828 28.24 69.2028 28.24C68.8028 28.24 68.3828 28.22 67.9428 28.18C67.5161 28.1533 67.1295 28.14 66.7828 28.14C66.5561 28.14 66.3228 28.1467 66.0828 28.16C65.8561 28.1733 65.6161 28.1867 65.3628 28.2C65.1228 28.2267 64.8695 28.24 64.6028 28.24ZM69.7628 22.44C69.9095 22.44 70.0828 22.3867 70.2828 22.28C70.4961 22.16 70.7028 21.9733 70.9028 21.72C71.1161 21.4667 71.2895 21.1267 71.4228 20.7C71.5695 20.2733 71.6428 19.7467 71.6428 19.12C71.6428 18.3867 71.5695 17.8067 71.4228 17.38C71.2761 16.94 71.0961 16.6133 70.8828 16.4C70.6695 16.1867 70.4495 16.0467 70.2228 15.98C70.0095 15.9 69.8228 15.86 69.6628 15.86C69.4228 15.86 69.1761 15.9133 68.9228 16.02C68.6695 16.1267 68.4628 16.2533 68.3028 16.4C68.1428 16.5467 68.0628 16.68 68.0628 16.8C68.0628 16.9067 68.0628 17.1133 68.0628 17.42C68.0628 17.7267 68.0561 18.0667 68.0428 18.44C68.0428 18.8133 68.0361 19.1533 68.0228 19.46C68.0228 19.7667 68.0228 19.98 68.0228 20.1C68.0228 20.4067 68.0895 20.7467 68.2228 21.12C68.3695 21.48 68.5695 21.7933 68.8228 22.06C69.0895 22.3133 69.4028 22.44 69.7628 22.44ZM75.7384 23.06C75.6318 23.06 75.5384 23.04 75.4584 23C75.3784 22.9467 75.3384 22.8733 75.3384 22.78C75.3384 22.6733 75.3784 22.5933 75.4584 22.54C75.5384 22.4733 75.6518 22.42 75.7984 22.38C76.0918 22.2867 76.2851 22.1867 76.3784 22.08C76.4851 21.9733 76.5384 21.82 76.5384 21.62V17.02C76.5384 16.74 76.4984 16.5133 76.4184 16.34C76.3518 16.1533 76.1918 16.0267 75.9384 15.96C75.8718 15.9333 75.8118 15.9 75.7584 15.86C75.7051 15.8067 75.6784 15.72 75.6784 15.6C75.6784 15.4133 75.7584 15.3 75.9184 15.26C76.3451 15.1533 76.8118 15.0133 77.3184 14.84C77.8384 14.6667 78.2784 14.4933 78.6384 14.32C78.7051 14.2667 78.7851 14.22 78.8784 14.18C78.9851 14.1267 79.0584 14.1 79.0984 14.1C79.2184 14.1 79.2784 14.1733 79.2784 14.32C79.2784 14.3867 79.2718 14.5267 79.2584 14.74C79.2584 14.94 79.2518 15.1467 79.2384 15.36C79.2384 15.5733 79.2318 15.7533 79.2184 15.9C79.2184 16.02 79.2451 16.08 79.2984 16.08C79.4984 15.8 79.7318 15.5267 79.9984 15.26C80.2784 14.9933 80.5784 14.7733 80.8984 14.6C81.2184 14.4267 81.5318 14.34 81.8384 14.34C82.3051 14.34 82.6318 14.4267 82.8184 14.6C83.0184 14.7733 83.1184 15 83.1184 15.28C83.1184 15.48 83.0584 15.7 82.9384 15.94C82.8318 16.18 82.6918 16.3867 82.5184 16.56C82.3451 16.7333 82.1584 16.82 81.9584 16.82C81.8384 16.82 81.7118 16.7933 81.5784 16.74C81.4451 16.6733 81.3118 16.6067 81.1784 16.54C81.0451 16.4867 80.9118 16.4333 80.7784 16.38C80.6584 16.3133 80.5451 16.28 80.4384 16.28C80.0918 16.28 79.7918 16.4067 79.5384 16.66C79.2851 16.9133 79.1584 17.42 79.1584 18.18V21.44C79.1584 21.7067 79.2384 21.9067 79.3984 22.04C79.5718 22.16 79.8451 22.2733 80.2184 22.38C80.3651 22.42 80.4718 22.4733 80.5384 22.54C80.6184 22.5933 80.6584 22.6733 80.6584 22.78C80.6584 22.9667 80.5451 23.06 80.3184 23.06C79.9184 23.06 79.5051 23.04 79.0784 23C78.6518 22.9733 78.2651 22.96 77.9184 22.96C77.6918 22.96 77.4584 22.9667 77.2184 22.98C76.9918 22.9933 76.7518 23.0067 76.4984 23.02C76.2584 23.0467 76.0051 23.06 75.7384 23.06ZM85.7597 23.28C85.3997 23.28 85.0664 23.1933 84.7597 23.02C84.453 22.8467 84.2064 22.62 84.0197 22.34C83.8464 22.06 83.7597 21.7533 83.7597 21.42C83.7597 20.9667 83.8997 20.5867 84.1797 20.28C84.473 19.9733 84.8997 19.7 85.4597 19.46L87.2397 18.68C87.5064 18.56 87.6664 18.4533 87.7197 18.36C87.7864 18.2667 87.8197 18.0933 87.8197 17.84L87.8397 16.7C87.853 16.3267 87.7864 16.0333 87.6397 15.82C87.493 15.5933 87.273 15.48 86.9797 15.48C86.8064 15.48 86.633 15.52 86.4597 15.6C86.2864 15.6667 86.153 15.7467 86.0597 15.84C86.0197 15.8933 85.9864 15.96 85.9597 16.04C85.9464 16.1067 85.9397 16.18 85.9397 16.26C85.9397 16.34 85.9464 16.44 85.9597 16.56C85.973 16.6667 85.9797 16.76 85.9797 16.84C85.9797 16.92 85.873 17.0267 85.6597 17.16C85.4464 17.28 85.1997 17.3933 84.9197 17.5C84.6397 17.5933 84.3997 17.64 84.1997 17.64C84.1064 17.64 84.0197 17.6 83.9397 17.52C83.873 17.44 83.8397 17.34 83.8397 17.22C83.8397 17.0067 83.913 16.8 84.0597 16.6C84.2064 16.3867 84.4464 16.1467 84.7797 15.88C85.1264 15.5867 85.5064 15.3267 85.9197 15.1C86.333 14.8733 86.7397 14.6933 87.1397 14.56C87.553 14.4267 87.8997 14.36 88.1797 14.36C88.8997 14.36 89.473 14.5933 89.8997 15.06C90.3264 15.5133 90.5264 16.12 90.4997 16.88L90.3997 20.92C90.3864 21.2267 90.4397 21.4867 90.5597 21.7C90.6797 21.9133 90.8264 22.02 90.9997 22.02C91.253 22.02 91.473 21.9333 91.6597 21.76C91.6997 21.72 91.7397 21.7 91.7797 21.7C91.8464 21.7 91.8997 21.72 91.9397 21.76C91.993 21.8 92.0197 21.8533 92.0197 21.92C92.0197 22.08 91.8997 22.2867 91.6597 22.54C91.4064 22.78 91.1397 22.96 90.8597 23.08C90.5797 23.2133 90.2864 23.28 89.9797 23.28C89.233 23.28 88.613 22.9 88.1197 22.14H88.0797C87.6397 22.54 87.2397 22.8267 86.8797 23C86.533 23.1867 86.1597 23.28 85.7597 23.28ZM86.9597 21.98C87.1064 21.98 87.2264 21.96 87.3197 21.92C87.413 21.8667 87.5064 21.7867 87.5997 21.68C87.6397 21.6267 87.673 21.56 87.6997 21.48C87.7264 21.3867 87.7397 21.28 87.7397 21.16L87.7997 19.72C87.7997 19.5867 87.7797 19.5 87.7397 19.46C87.6997 19.42 87.653 19.4 87.5997 19.4C87.573 19.4 87.5397 19.4067 87.4997 19.42C87.4597 19.4333 87.413 19.4533 87.3597 19.48C86.973 19.6667 86.6864 19.86 86.4997 20.06C86.313 20.2467 86.2197 20.5533 86.2197 20.98C86.2197 21.3667 86.2997 21.6333 86.4597 21.78C86.6197 21.9133 86.7864 21.98 86.9597 21.98ZM96.1692 23.28C95.4626 23.28 94.8226 23.0933 94.2492 22.72C93.6892 22.3333 93.2426 21.82 92.9092 21.18C92.5892 20.5267 92.4292 19.7933 92.4292 18.98C92.4292 18.1133 92.6292 17.3333 93.0292 16.64C93.4292 15.9467 93.9626 15.3933 94.6292 14.98C95.3092 14.5667 96.0626 14.36 96.8892 14.36C97.9826 14.36 98.8892 14.72 99.6092 15.44C99.7292 15.5733 99.7892 15.6933 99.7892 15.8C99.7892 15.88 99.7292 16 99.6092 16.16C99.4892 16.3067 99.3559 16.44 99.2092 16.56C99.0626 16.68 98.9359 16.74 98.8292 16.74C98.7092 16.74 98.5892 16.7067 98.4692 16.64C98.3626 16.56 98.2559 16.4733 98.1492 16.38C97.8026 16.0867 97.4492 15.8533 97.0892 15.68C96.7426 15.4933 96.4426 15.4 96.1892 15.4C95.6826 15.4 95.2959 15.6133 95.0292 16.04C94.7759 16.4533 94.6492 17.1333 94.6492 18.08C94.6492 18.7333 94.7492 19.3 94.9492 19.78C95.1626 20.2467 95.4626 20.6067 95.8492 20.86C96.2359 21.1133 96.7026 21.24 97.2492 21.24C97.6492 21.24 97.9959 21.18 98.2892 21.06C98.5826 20.9267 98.8892 20.7267 99.2092 20.46C99.2759 20.42 99.3292 20.38 99.3692 20.34C99.4226 20.3 99.4826 20.28 99.5492 20.28C99.7092 20.28 99.7892 20.3867 99.7892 20.6C99.7892 20.6533 99.7759 20.7333 99.7492 20.84C99.7359 20.9333 99.6959 21.04 99.6292 21.16C99.5092 21.4267 99.2759 21.7267 98.9292 22.06C98.5959 22.3933 98.1959 22.68 97.7292 22.92C97.2626 23.16 96.7426 23.28 96.1692 23.28ZM100.756 23.06C100.489 23.06 100.356 22.9667 100.356 22.78C100.356 22.6067 100.509 22.4733 100.816 22.38C101.016 22.3133 101.189 22.24 101.336 22.16C101.482 22.08 101.562 21.8933 101.576 21.6V12C101.576 11.64 101.529 11.3267 101.436 11.06C101.342 10.7933 101.129 10.6267 100.796 10.56C100.649 10.5333 100.576 10.4333 100.576 10.26C100.576 10.0867 100.642 9.98667 100.776 9.96C101.082 9.89333 101.429 9.8 101.816 9.68C102.216 9.54667 102.602 9.41333 102.976 9.28C103.349 9.13333 103.636 9.02667 103.836 8.96C103.942 8.92 104.029 8.9 104.096 8.9C104.176 8.9 104.229 8.92667 104.256 8.98C104.282 9.02 104.296 9.07333 104.296 9.14C104.296 9.20667 104.282 9.30667 104.256 9.44C104.242 9.56 104.229 9.71333 104.216 9.9C104.202 10.0733 104.189 10.28 104.176 10.52V15.14C104.176 15.2733 104.182 15.3933 104.196 15.5C104.209 15.6067 104.242 15.68 104.296 15.72C104.496 15.5467 104.736 15.36 105.016 15.16C105.296 14.9467 105.616 14.76 105.976 14.6C106.349 14.44 106.762 14.36 107.216 14.36C107.922 14.36 108.516 14.6133 108.996 15.12C109.476 15.6133 109.716 16.3067 109.716 17.2V21.56C109.716 21.84 109.789 22.0333 109.936 22.14C110.082 22.2333 110.249 22.3133 110.436 22.38C110.582 22.42 110.689 22.4733 110.756 22.54C110.836 22.5933 110.876 22.6733 110.876 22.78C110.876 22.9667 110.729 23.06 110.436 23.06C110.116 23.06 109.856 23.0467 109.656 23.02C109.456 23.0067 109.262 22.9933 109.076 22.98C108.902 22.9667 108.676 22.96 108.396 22.96C108.102 22.96 107.876 22.9667 107.716 22.98C107.556 22.9933 107.389 23.0067 107.216 23.02C107.042 23.0467 106.796 23.06 106.476 23.06C106.142 23.06 105.976 22.96 105.976 22.76C105.976 22.6533 106.016 22.5733 106.096 22.52C106.189 22.4533 106.289 22.4067 106.396 22.38C106.569 22.3133 106.729 22.2267 106.876 22.12C107.022 22.0133 107.096 21.8133 107.096 21.52V17.58C107.096 17.2867 107.036 17.0267 106.916 16.8C106.796 16.56 106.636 16.3733 106.436 16.24C106.249 16.0933 106.042 16.02 105.816 16.02C105.616 16.02 105.396 16.0533 105.156 16.12C104.916 16.1867 104.682 16.3 104.456 16.46C104.349 16.54 104.276 16.6333 104.236 16.74C104.209 16.8333 104.196 16.98 104.196 17.18V21.56C104.196 21.8267 104.262 22.0133 104.396 22.12C104.529 22.2133 104.682 22.2933 104.856 22.36C104.976 22.4 105.076 22.4533 105.156 22.52C105.236 22.5733 105.276 22.6533 105.276 22.76C105.276 22.96 105.156 23.06 104.916 23.06C104.649 23.06 104.396 23.0467 104.156 23.02C103.929 23.0067 103.709 22.9933 103.496 22.98C103.296 22.9667 103.076 22.96 102.836 22.96C102.609 22.96 102.382 22.9667 102.156 22.98C101.942 22.9933 101.722 23.0067 101.496 23.02C101.269 23.0467 101.022 23.06 100.756 23.06Z" fill="black"/>
<rect x="14" y="12" width="35" height="8.66667" rx="4.33333" fill="black"/>
<rect x="16" y="20.6667" width="35" height="8.66667" rx="4.33333" fill="#FF0000"/>
<rect x="18" y="29.3333" width="35" height="8.66667" rx="4.33333" fill="#FFE03D"/>
<path d="M59.38 39.28C58.8067 39.28 58.2533 39.2133 57.72 39.08C57.1867 38.9467 56.6867 38.7333 56.22 38.44C56.14 38.3733 56.06 38.3 55.98 38.22C55.9 38.14 55.84 38.0533 55.8 37.96C55.6667 37.6 55.5733 37.16 55.52 36.64C55.48 36.12 55.4667 35.5933 55.48 35.06C55.48 34.9667 55.52 34.9 55.6 34.86C55.68 34.82 55.7733 34.8 55.88 34.8C56.0133 34.8 56.1 34.82 56.14 34.86C56.1933 34.8867 56.2467 34.9467 56.3 35.04C56.5933 36.04 57.0267 36.8467 57.6 37.46C58.1867 38.0733 58.8667 38.38 59.64 38.38C60.0667 38.38 60.4133 38.2867 60.68 38.1C60.96 37.9 61.1733 37.6533 61.32 37.36C61.4667 37.0533 61.54 36.7467 61.54 36.44C61.54 36.0133 61.4533 35.6533 61.28 35.36C61.12 35.0667 60.8733 34.8 60.54 34.56C60.2067 34.32 59.78 34.06 59.26 33.78C58.7 33.46 58.16 33.1267 57.64 32.78C57.12 32.42 56.6933 31.9867 56.36 31.48C56.0267 30.9733 55.86 30.34 55.86 29.58C55.86 28.7933 56.06 28.1133 56.46 27.54C56.8733 26.9667 57.4333 26.52 58.14 26.2C58.8467 25.88 59.64 25.72 60.52 25.72C61.0267 25.72 61.5067 25.7733 61.96 25.88C62.4267 25.9867 62.8 26.0933 63.08 26.2C63.24 26.2667 63.3533 26.34 63.42 26.42C63.5 26.5 63.5667 26.64 63.62 26.84C63.6867 27.12 63.74 27.46 63.78 27.86C63.8333 28.26 63.86 28.7 63.86 29.18C63.86 29.3533 63.74 29.44 63.5 29.44C63.38 29.44 63.2667 29.4133 63.16 29.36C63.0667 29.2933 63.0067 29.2133 62.98 29.12C62.7533 28.32 62.42 27.7133 61.98 27.3C61.54 26.8867 61 26.68 60.36 26.68C59.96 26.68 59.62 26.7467 59.34 26.88C59.06 27.0133 58.8467 27.2133 58.7 27.48C58.5667 27.7467 58.5 28.08 58.5 28.48C58.5 28.8 58.6067 29.1 58.82 29.38C59.0467 29.6467 59.3667 29.92 59.78 30.2C60.1933 30.48 60.6667 30.78 61.2 31.1C61.92 31.5267 62.4933 31.9467 62.92 32.36C63.3467 32.7733 63.6533 33.2133 63.84 33.68C64.04 34.1333 64.14 34.66 64.14 35.26C64.14 36.1667 63.94 36.92 63.54 37.52C63.1533 38.12 62.6 38.5667 61.88 38.86C61.1733 39.14 60.34 39.28 59.38 39.28ZM67.4628 39.28C67.1028 39.28 66.7695 39.1933 66.4628 39.02C66.1561 38.8467 65.9095 38.62 65.7228 38.34C65.5495 38.06 65.4628 37.7533 65.4628 37.42C65.4628 36.9667 65.6028 36.5867 65.8828 36.28C66.1761 35.9733 66.6028 35.7 67.1628 35.46L68.9428 34.68C69.2095 34.56 69.3695 34.4533 69.4228 34.36C69.4895 34.2667 69.5228 34.0933 69.5228 33.84L69.5428 32.7C69.5561 32.3267 69.4895 32.0333 69.3428 31.82C69.1961 31.5933 68.9761 31.48 68.6828 31.48C68.5095 31.48 68.3361 31.52 68.1628 31.6C67.9895 31.6667 67.8561 31.7467 67.7628 31.84C67.7228 31.8933 67.6895 31.96 67.6628 32.04C67.6495 32.1067 67.6428 32.18 67.6428 32.26C67.6428 32.34 67.6495 32.44 67.6628 32.56C67.6761 32.6667 67.6828 32.76 67.6828 32.84C67.6828 32.92 67.5761 33.0267 67.3628 33.16C67.1495 33.28 66.9028 33.3933 66.6228 33.5C66.3428 33.5933 66.1028 33.64 65.9028 33.64C65.8095 33.64 65.7228 33.6 65.6428 33.52C65.5761 33.44 65.5428 33.34 65.5428 33.22C65.5428 33.0067 65.6161 32.8 65.7628 32.6C65.9095 32.3867 66.1495 32.1467 66.4828 31.88C66.8295 31.5867 67.2095 31.3267 67.6228 31.1C68.0361 30.8733 68.4428 30.6933 68.8428 30.56C69.2561 30.4267 69.6028 30.36 69.8828 30.36C70.6028 30.36 71.1761 30.5933 71.6028 31.06C72.0295 31.5133 72.2295 32.12 72.2028 32.88L72.1028 36.92C72.0895 37.2267 72.1428 37.4867 72.2628 37.7C72.3828 37.9133 72.5295 38.02 72.7028 38.02C72.9561 38.02 73.1761 37.9333 73.3628 37.76C73.4028 37.72 73.4428 37.7 73.4828 37.7C73.5495 37.7 73.6028 37.72 73.6428 37.76C73.6961 37.8 73.7228 37.8533 73.7228 37.92C73.7228 38.08 73.6028 38.2867 73.3628 38.54C73.1095 38.78 72.8428 38.96 72.5628 39.08C72.2828 39.2133 71.9895 39.28 71.6828 39.28C70.9361 39.28 70.3161 38.9 69.8228 38.14H69.7828C69.3428 38.54 68.9428 38.8267 68.5828 39C68.2361 39.1867 67.8628 39.28 67.4628 39.28ZM68.6628 37.98C68.8095 37.98 68.9295 37.96 69.0228 37.92C69.1161 37.8667 69.2095 37.7867 69.3028 37.68C69.3428 37.6267 69.3761 37.56 69.4028 37.48C69.4295 37.3867 69.4428 37.28 69.4428 37.16L69.5028 35.72C69.5028 35.5867 69.4828 35.5 69.4428 35.46C69.4028 35.42 69.3561 35.4 69.3028 35.4C69.2761 35.4 69.2428 35.4067 69.2028 35.42C69.1628 35.4333 69.1161 35.4533 69.0628 35.48C68.6761 35.6667 68.3895 35.86 68.2028 36.06C68.0161 36.2467 67.9228 36.5533 67.9228 36.98C67.9228 37.3667 68.0028 37.6333 68.1628 37.78C68.3228 37.9133 68.4895 37.98 68.6628 37.98ZM74.3723 39.06C74.2523 39.06 74.1523 39.04 74.0723 39C74.0057 38.9467 73.9723 38.8733 73.9723 38.78C73.9723 38.6733 74.0123 38.5933 74.0923 38.54C74.1723 38.4733 74.2857 38.42 74.4323 38.38C74.6323 38.3133 74.8057 38.24 74.9523 38.16C75.1123 38.08 75.1923 37.9 75.1923 37.62V28C75.1923 27.64 75.139 27.3267 75.0323 27.06C74.939 26.7933 74.7257 26.6267 74.3923 26.56C74.259 26.5333 74.1923 26.4333 74.1923 26.26C74.1923 26.0867 74.2523 25.9867 74.3723 25.96C74.719 25.8933 75.0923 25.8 75.4923 25.68C75.8923 25.5467 76.2723 25.4133 76.6323 25.28C76.9923 25.1333 77.2723 25.0267 77.4723 24.96C77.579 24.92 77.6657 24.9 77.7323 24.9C77.8123 24.9 77.8657 24.9267 77.8923 24.98C77.919 25.02 77.9323 25.0733 77.9323 25.14C77.9323 25.2333 77.9123 25.4067 77.8723 25.66C77.8457 25.9133 77.8257 26.2 77.8123 26.52V37.58C77.8123 37.8733 77.8857 38.06 78.0323 38.14C78.1923 38.2067 78.3723 38.2733 78.5723 38.34C78.719 38.3933 78.8323 38.4467 78.9123 38.5C78.9923 38.5533 79.0323 38.6333 79.0323 38.74C79.0323 38.8333 78.9923 38.9067 78.9123 38.96C78.8457 39 78.7523 39.02 78.6323 39.02C78.379 39.02 78.1257 39.0133 77.8723 39C77.6323 38.9867 77.3923 38.98 77.1523 38.98C76.9257 38.9667 76.6923 38.96 76.4523 38.96C76.2257 38.96 75.999 38.9667 75.7723 38.98C75.559 38.9933 75.339 39.0067 75.1123 39.02C74.8857 39.0467 74.639 39.06 74.3723 39.06ZM83.7634 39.28C82.9634 39.28 82.2434 39.1 81.6034 38.74C80.9634 38.38 80.4501 37.8867 80.0634 37.26C79.6901 36.62 79.5034 35.9 79.5034 35.1C79.5034 34.46 79.6234 33.8533 79.8634 33.28C80.1034 32.7067 80.4368 32.2 80.8634 31.76C81.2901 31.32 81.7901 30.9733 82.3634 30.72C82.9368 30.4667 83.5501 30.34 84.2034 30.34C85.0301 30.34 85.7768 30.5333 86.4434 30.92C87.1101 31.3067 87.6368 31.82 88.0234 32.46C88.4234 33.0867 88.6234 33.7733 88.6234 34.52C88.6234 35.3733 88.4368 36.1667 88.0634 36.9C87.7034 37.62 87.1634 38.2 86.4434 38.64C85.7368 39.0667 84.8434 39.28 83.7634 39.28ZM84.1634 38.4C84.4434 38.4 84.6834 38.3467 84.8834 38.24C85.0968 38.12 85.2701 37.9467 85.4034 37.72C85.5634 37.4533 85.6701 37.0933 85.7234 36.64C85.7901 36.1733 85.8234 35.6267 85.8234 35C85.8234 34.28 85.7434 33.64 85.5834 33.08C85.4234 32.5067 85.1968 32.0533 84.9034 31.72C84.6234 31.3867 84.2901 31.22 83.9034 31.22C83.6901 31.22 83.4968 31.26 83.3234 31.34C83.1501 31.4067 82.9968 31.5067 82.8634 31.64C82.6368 31.9067 82.4768 32.2867 82.3834 32.78C82.3034 33.2733 82.2634 33.88 82.2634 34.6C82.2634 35.24 82.3434 35.8533 82.5034 36.44C82.6768 37.0133 82.9034 37.4867 83.1834 37.86C83.4768 38.22 83.8034 38.4 84.1634 38.4ZM89.902 39.06C89.8087 39.06 89.7154 39.04 89.622 39C89.542 38.9467 89.502 38.8733 89.502 38.78C89.502 38.6733 89.5487 38.5933 89.642 38.54C89.7354 38.4733 89.842 38.42 89.962 38.38C90.162 38.3133 90.3354 38.24 90.482 38.16C90.642 38.0667 90.722 37.8867 90.722 37.62V33.04C90.722 32.7467 90.6754 32.5 90.582 32.3C90.502 32.1 90.342 31.9733 90.102 31.92C90.0487 31.9067 89.9954 31.8733 89.942 31.82C89.902 31.7667 89.882 31.68 89.882 31.56C89.882 31.3733 89.9487 31.26 90.082 31.22C90.5354 31.1133 91.0287 30.9733 91.562 30.8C92.1087 30.6133 92.5754 30.42 92.962 30.22C93.0154 30.1933 93.0754 30.16 93.142 30.12C93.2087 30.08 93.2687 30.06 93.322 30.06C93.402 30.06 93.4487 30.0867 93.462 30.14C93.4887 30.18 93.502 30.2333 93.502 30.3C93.502 30.4067 93.482 30.58 93.442 30.82C93.4154 31.0467 93.402 31.2533 93.402 31.44C93.402 31.4933 93.402 31.5533 93.402 31.62C93.4154 31.6867 93.4287 31.7267 93.442 31.74C93.8954 31.3 94.3554 30.96 94.822 30.72C95.2887 30.48 95.8287 30.36 96.442 30.36C97.1354 30.36 97.7154 30.62 98.182 31.14C98.662 31.6467 98.902 32.34 98.902 33.22V37.62C98.902 37.8867 98.9754 38.0667 99.122 38.16C99.282 38.24 99.462 38.3133 99.662 38.38C99.7687 38.42 99.862 38.4733 99.942 38.54C100.022 38.5933 100.062 38.6733 100.062 38.78C100.062 38.8733 100.022 38.9467 99.942 39C99.8754 39.04 99.802 39.06 99.722 39.06C99.4554 39.06 99.202 39.0467 98.962 39.02C98.7354 39.0067 98.5087 38.9933 98.282 38.98C98.0687 38.9667 97.842 38.96 97.602 38.96C97.3754 38.96 97.1487 38.9667 96.922 38.98C96.6954 38.9933 96.4687 39.0067 96.242 39.02C96.0154 39.0467 95.7687 39.06 95.502 39.06C95.422 39.06 95.342 39.04 95.262 39C95.1954 38.9467 95.162 38.8733 95.162 38.78C95.162 38.6733 95.202 38.5933 95.282 38.54C95.362 38.4733 95.4554 38.42 95.562 38.38C95.762 38.3133 95.9287 38.24 96.062 38.16C96.1954 38.0667 96.262 37.8867 96.262 37.62V33.64C96.262 33.1333 96.142 32.74 95.902 32.46C95.6754 32.1667 95.3687 32.0133 94.982 32C94.6887 32 94.4287 32.0467 94.202 32.14C93.9754 32.2333 93.742 32.36 93.502 32.52C93.4487 32.5733 93.4087 32.6333 93.382 32.7C93.3554 32.7667 93.342 32.8333 93.342 32.9V37.62C93.342 37.8867 93.4154 38.0667 93.562 38.16C93.7087 38.24 93.8754 38.3133 94.062 38.38C94.3287 38.46 94.462 38.5933 94.462 38.78C94.462 38.86 94.4287 38.9267 94.362 38.98C94.2954 39.0333 94.2154 39.06 94.122 39.06C93.8554 39.06 93.6087 39.0467 93.382 39.02C93.1554 39.0067 92.942 38.9933 92.742 38.98C92.542 38.9667 92.322 38.96 92.082 38.96C91.8554 38.96 91.622 38.9667 91.382 38.98C91.1554 38.9933 90.9154 39.0067 90.662 39.02C90.422 39.0467 90.1687 39.06 89.902 39.06Z" fill="black"/>
</svg>
